# xmcd CD database file
#
# Track frame offsets:
#	150
#	7104
#	13355
#	19130
#	23117
#	26400
#	30892
#	37282
#	57345
#	72502
#	86495
#	101422
#	115465
#
# Disc length: 1717 seconds
#
# Revision: 0
# Processed by: cddbd v1.5.2PL0 Copyright (c) Steve Scherf et al.
# Submitted via: CDex 1.51
#
DISCID=a706b30d
DTITLE=Leadbelly - Storyteller Blues
DYEAR=1900
DGENRE=Blues
TTITLE0=01 Noted Rider
TTITLE1=02 Big Fat Woman
TTITLE2=03 Burrow Love and Go
TTITLE3=04 Bring Me Li'l Water Silvy
TTITLE4=05 Julie Ann Johnson
TTITLE5=06 Line 'Em
TTITLE6=07 Whoe Back Buck
TTITLE7=08 John Hardy
TTITLE8=09 The Bourgeois Blues
TTITLE9=10 Looky, Looky Yonder/ Black Betty/ Yellow
TTITLE10=11 Poor Howard/ Green Corn
TTITLE11=12 The Gallis Pole
TTITLE12=13 Dekalb Woman
EXTD=
EXTT0=
EXTT1=
EXTT2=
EXTT3=
EXTT4=
EXTT5=
EXTT6=
EXTT7=
EXTT8=
EXTT9=
EXTT10=
EXTT11=
EXTT12=
PLAYORDER=
